<?xml version="1.0" encoding="iso-8859-1"?>
<!-- Generator: Adobe Illustrator 18.1.1, SVG Export Plug-In . SVG Version: 6.00 Build 0)  -->
<svg version="1.1" id="Capa_1" xmlns="http://www.w3.org/2000/svg" xmlns:xlink="http://www.w3.org/1999/xlink" x="0px" y="0px"
	 viewBox="0 0 415.394 415.394" style="enable-background:new 0 0 415.394 415.394;" xml:space="preserve">
<g>
	<g id="Layer_5_23_">
		<g>
			<path d="M380.008,211.433c-3.337-3.695-8.189-5.815-13.312-5.815c0,0-62.229,0-82.973,0c-6.875,0-8.177-4.854-8.177-4.854
				l-7.773-43.964c-0.702-3.971-5.05-8.796-2.76-12.752c6.892-11.905,12.195-32.514,12.195-62.893
				C277.208,14.08,239.407,0,207.696,0c-24.204,0-42.601,8.687-54.679,25.817c-9.704,13.763-14.833,32.898-14.833,55.338
				c0,28.188,2.78,46.605,8.749,57.961c1.479,2.814,3.119,5.137,4.861,7.052c1.333,1.466,3.43,4.086,2.116,9.411l-7.985,45.166
				c0,0-1.575,4.872-9.575,4.872c-22.819,0-87.652,0-87.652,0c-5.123,0-9.975,2.12-13.312,5.815s-4.953,8.738-4.432,13.834
				l17.558,171.901c1.044,10.221,9.91,18.227,20.184,18.227h278c10.273,0,19.139-8.006,20.184-18.227l17.561-171.899
				C384.961,220.172,383.345,215.129,380.008,211.433z M171.807,60.005c2.661-2.79,5.053-4.398,9.037-6.743
				c1.864-1.098,3.791-2.231,5.764-3.339c4.958-2.783,8.155-7.858,12.192-7.858c3.841,0,15.335,13.34,20.526,16.727
				c8.886,5.799,21.043,5.67,27.646,13.088c2.557,2.872,2.745,7.476,2.745,10.735c0,26.938-33.518,47.868-42.022,47.868
				c-9.99,0-42.022-22.079-42.022-47.868C165.674,76.807,165.473,66.644,171.807,60.005z M237.035,323.005h-13.894
				c0,0-3.104,0.046-3.104,2.457c0,3.635,0,14.54,0,14.54c0,6.816-5.526,12.344-12.342,12.344c-6.817,0-12.344-5.527-12.344-12.344
				c0,0,0-10.761,0-14.348c0-2.894-2.684-2.649-2.684-2.649h-14.311c-6.817,0-12.343-5.526-12.343-12.344
				s5.526-12.343,12.343-12.343h13.927c0,0,3.069,0.142,3.069-2.848c0-3.538,0-14.149,0-14.149c0-6.816,5.526-12.344,12.344-12.344
				c6.816,0,12.342,5.527,12.342,12.344c0,0,0,11.335,0,15.113c0,2.025,2.621,1.884,2.621,1.884h14.376
				c6.817,0,12.344,5.525,12.344,12.343S243.853,323.005,237.035,323.005z M255.723,205.618c-23.114,0-68.84-0.304-92.456-0.304
				c-4.028,0-3.103-4.703-3.103-4.703l7.531-42.594c0.403-3.888,2.54-3.146,2.54-3.146c1.359,0.113,2.666,0.152,3.89,0.152
				c5.043,0,10.24-0.729,15.742-1.501c5.785-0.812,11.767-1.651,17.83-1.651c5.96,0,11.84,0.776,17.526,1.527
				c5.417,0.715,10.533,1.39,15.504,1.39c2.971,0,5.727-0.279,8.295-0.825c0.227,0.101,3.577-1.083,4.966,5.275l7.551,42.711
				C261.539,201.949,261.848,205.618,255.723,205.618z"/>
		</g>
	</g>
</g>
<g>
</g>
<g>
</g>
<g>
</g>
<g>
</g>
<g>
</g>
<g>
</g>
<g>
</g>
<g>
</g>
<g>
</g>
<g>
</g>
<g>
</g>
<g>
</g>
<g>
</g>
<g>
</g>
<g>
</g>
</svg>
